<svg xmlns="http://www.w3.org/2000/svg" xmlns:xlink="http://www.w3.org/1999/xlink" width="500" zoomAndPan="magnify" viewBox="0 0 375 374.999991" height="500" preserveAspectRatio="xMidYMid meet" version="1.2"><defs><clipPath id="5e1e9ae005"><path d="M 127.261719 87.207031 L 247.453125 87.207031 L 247.453125 225.914062 L 127.261719 225.914062 Z M 127.261719 87.207031 "/></clipPath></defs><g id="2d89e4e9d8"><rect x="0" width="375" y="0" height="374.999991" style="fill:#ffffff;fill-opacity:1;stroke:none;"/><rect x="0" width="375" y="0" height="374.999991" style="fill:#004aad;fill-opacity:1;stroke:none;"/><g clip-rule="nonzero" clip-path="url(#5e1e9ae005)"><path style=" stroke:none;fill-rule:nonzero;fill:#ffffff;fill-opacity:1;" d="M 188.796875 87.992188 L 217.394531 104.503906 L 217.40625 104.503906 L 246.003906 121.015625 L 247.453125 121.851562 L 247.453125 191.226562 L 246.003906 192.0625 L 217.40625 208.574219 L 217.394531 208.574219 L 188.796875 225.085938 L 187.359375 225.917969 L 185.921875 225.085938 L 157.324219 208.574219 L 157.3125 208.574219 L 128.710938 192.0625 L 127.261719 191.226562 L 127.261719 121.851562 L 128.710938 121.015625 L 157.3125 104.503906 L 157.324219 104.503906 L 185.921875 87.992188 L 187.359375 87.164062 Z M 214.511719 109.5 L 187.359375 93.824219 L 160.203125 109.5 L 160.207031 109.503906 L 133.058594 125.179688 L 133.058594 187.898438 L 160.207031 203.574219 L 160.203125 203.578125 L 187.359375 219.253906 L 214.511719 203.578125 L 214.507812 203.574219 L 241.660156 187.898438 L 241.660156 125.179688 L 214.507812 109.503906 L 214.511719 109.5 "/></g><path style=" stroke:none;fill-rule:nonzero;fill:#ffffff;fill-opacity:1;" d="M 167.152344 154.648438 C 164.429688 154.648438 161.964844 153.546875 160.183594 151.761719 C 158.398438 149.976562 157.292969 147.511719 157.292969 144.789062 C 157.292969 142.078125 158.398438 139.617188 160.179688 137.832031 L 160.179688 137.820312 C 161.957031 136.042969 164.421875 134.941406 167.152344 134.941406 L 207.5625 134.941406 C 210.289062 134.941406 212.753906 136.042969 214.53125 137.820312 L 214.53125 137.832031 C 216.3125 139.617188 217.417969 142.078125 217.417969 144.789062 C 217.417969 147.511719 216.316406 149.976562 214.53125 151.761719 C 212.746094 153.546875 210.28125 154.648438 207.558594 154.648438 C 201.511719 154.648438 199.492188 147.121094 203.492188 144.789062 C 203.492188 147.039062 205.3125 148.855469 207.558594 148.855469 C 208.683594 148.855469 209.699219 148.402344 210.433594 147.664062 C 211.171875 146.929688 211.625 145.914062 211.625 144.789062 C 211.625 143.664062 211.171875 142.644531 210.441406 141.910156 L 210.4375 141.914062 C 209.695312 141.171875 208.675781 140.714844 207.5625 140.714844 L 167.152344 140.714844 C 166.035156 140.714844 165.019531 141.171875 164.277344 141.914062 L 164.273438 141.910156 C 163.539062 142.644531 163.085938 143.664062 163.085938 144.789062 C 163.085938 145.914062 163.542969 146.929688 164.277344 147.664062 C 165.011719 148.402344 166.03125 148.855469 167.152344 148.855469 C 169.398438 148.855469 171.21875 147.039062 171.21875 144.789062 C 175.21875 147.121094 173.199219 154.648438 167.152344 154.648438 "/><path style=" stroke:none;fill-rule:nonzero;fill:#ffffff;fill-opacity:1;" d="M 190.253906 144.796875 L 190.253906 203.015625 L 184.460938 203.015625 L 184.460938 144.796875 L 190.253906 144.796875 "/><path style=" stroke:none;fill-rule:nonzero;fill:#ffffff;fill-opacity:1;" d="M 203.558594 157.632812 L 203.558594 203.015625 L 197.765625 203.015625 L 197.765625 157.632812 L 203.558594 157.632812 "/><path style=" stroke:none;fill-rule:nonzero;fill:#ffffff;fill-opacity:1;" d="M 177.011719 157.632812 L 177.011719 203.015625 L 171.21875 203.015625 L 171.21875 157.632812 L 177.011719 157.632812 "/><path style=" stroke:none;fill-rule:evenodd;fill:#ffffff;fill-opacity:1;" d="M 167.292969 126.632812 C 167.226562 130.679688 169.957031 132.472656 177.910156 132.429688 C 184.683594 132.390625 191.453125 132.402344 198.222656 132.417969 C 205.132812 132.253906 207.550781 130.441406 207.488281 126.632812 L 167.292969 126.632812 "/><path style=" stroke:none;fill-rule:nonzero;fill:#ffffff;fill-opacity:1;" d="M 157.332031 118.160156 L 217.425781 118.160156 L 217.425781 123.953125 L 157.332031 123.953125 L 157.332031 118.160156 "/><g style="fill:#ffffff;fill-opacity:1;"><g transform="translate(68.452729, 262.807526)"><path style="stroke:none" d="M 22.375 0.546875 C 20.976562 0.546875 19.691406 0.453125 18.515625 0.265625 C 17.335938 0.0859375 16.148438 -0.0820312 14.953125 -0.25 C 13.765625 -0.425781 12.410156 -0.515625 10.890625 -0.515625 C 9.203125 -0.515625 7.675781 -0.394531 6.3125 -0.15625 C 4.945312 0.0703125 3.835938 0.304688 2.984375 0.546875 C 3.203125 -0.179688 3.367188 -1.171875 3.484375 -2.421875 C 3.609375 -3.679688 3.671875 -4.9375 3.671875 -6.1875 L 3.671875 -19.578125 C 3.671875 -20.828125 3.601562 -21.988281 3.46875 -23.0625 C 3.34375 -24.144531 3.179688 -25.039062 2.984375 -25.75 L 10.046875 -25.75 C 9.867188 -25.039062 9.710938 -24.046875 9.578125 -22.765625 C 9.453125 -21.492188 9.390625 -20.234375 9.390625 -18.984375 L 9.390625 -4.859375 L 20.609375 -4.859375 C 22.203125 -4.859375 23.675781 -4.957031 25.03125 -5.15625 C 26.394531 -5.351562 27.457031 -5.609375 28.21875 -5.921875 L 27.890625 -0.25 C 27.421875 -0.15625 26.671875 0 25.640625 0.21875 C 24.617188 0.4375 23.53125 0.546875 22.375 0.546875 Z M 22.375 0.546875 "/></g></g><g style="fill:#ffffff;fill-opacity:1;"><g transform="translate(97.512984, 262.807526)"><path style="stroke:none" d="M -0.4375 0 C 0.0507812 -0.707031 0.628906 -1.617188 1.296875 -2.734375 C 1.972656 -3.859375 2.617188 -5.007812 3.234375 -6.1875 L 10.234375 -19.578125 C 10.847656 -20.804688 11.316406 -21.960938 11.640625 -23.046875 C 11.972656 -24.140625 12.203125 -25.039062 12.328125 -25.75 L 21.34375 -25.75 C 21.507812 -24.914062 21.757812 -23.9375 22.09375 -22.8125 C 22.425781 -21.6875 22.835938 -20.617188 23.328125 -19.609375 L 30.390625 -6.1875 C 31.003906 -4.976562 31.640625 -3.820312 32.296875 -2.71875 C 32.960938 -1.613281 33.539062 -0.707031 34.03125 0 L 26.828125 0 C 26.753906 -0.488281 26.59375 -1.050781 26.34375 -1.6875 C 26.101562 -2.332031 25.710938 -3.128906 25.171875 -4.078125 L 24.109375 -6.03125 L 9.5 -6.03125 L 8.421875 -4.046875 C 7.984375 -3.117188 7.613281 -2.332031 7.3125 -1.6875 C 7.019531 -1.050781 6.835938 -0.488281 6.765625 0 Z M 11.625 -10.40625 L 21.96875 -10.40625 L 18.546875 -17 C 18.222656 -17.6875 17.9375 -18.351562 17.6875 -19 C 17.445312 -19.65625 17.207031 -20.335938 16.96875 -21.046875 L 16.625 -21.046875 C 16.382812 -20.304688 16.140625 -19.617188 15.890625 -18.984375 C 15.648438 -18.347656 15.359375 -17.675781 15.015625 -16.96875 Z M 11.625 -10.40625 "/></g></g><g style="fill:#ffffff;fill-opacity:1;"><g transform="translate(130.913902, 262.807526)"><path style="stroke:none" d="M 9.34375 0 C 9.25 -0.925781 9.039062 -1.988281 8.71875 -3.1875 C 8.40625 -4.394531 8.0625 -5.550781 7.6875 -6.65625 L 3.015625 -19.578125 C 2.597656 -20.828125 2.15625 -21.988281 1.6875 -23.0625 C 1.226562 -24.144531 0.789062 -25.039062 0.375 -25.75 L 7.609375 -25.75 C 7.660156 -25.238281 7.738281 -24.648438 7.84375 -23.984375 C 7.957031 -23.328125 8.175781 -22.519531 8.5 -21.5625 L 12.6875 -10.046875 C 12.9375 -9.359375 13.160156 -8.707031 13.359375 -8.09375 C 13.554688 -7.476562 13.753906 -6.828125 13.953125 -6.140625 L 14.234375 -6.140625 L 21.046875 -25.75 L 25.609375 -25.75 L 32.375 -6.140625 L 32.671875 -6.140625 C 32.867188 -6.828125 33.066406 -7.476562 33.265625 -8.09375 C 33.460938 -8.707031 33.679688 -9.359375 33.921875 -10.046875 L 38.15625 -21.5625 C 38.445312 -22.539062 38.660156 -23.351562 38.796875 -24 C 38.929688 -24.65625 39.015625 -25.238281 39.046875 -25.75 L 46.25 -25.75 C 45.863281 -25.039062 45.4375 -24.144531 44.96875 -23.0625 C 44.5 -21.988281 44.054688 -20.828125 43.640625 -19.578125 L 38.96875 -6.703125 C 38.570312 -5.597656 38.234375 -4.4375 37.953125 -3.21875 C 37.671875 -2 37.46875 -0.925781 37.34375 0 L 30.03125 0 L 23.46875 -19.09375 L 23.1875 -19.09375 L 16.625 0 Z M 9.34375 0 "/></g></g><g style="fill:#ffffff;fill-opacity:1;"><g transform="translate(177.336801, 262.807526)"><path style="stroke:none" d="M 12.84375 -0.03125 C 13.007812 -0.675781 13.148438 -1.453125 13.265625 -2.359375 C 13.378906 -3.265625 13.4375 -4.296875 13.4375 -5.453125 L 13.4375 -9.71875 L 4.34375 -20.796875 C 3.53125 -21.847656 2.753906 -22.800781 2.015625 -23.65625 C 1.285156 -24.519531 0.625 -25.21875 0.03125 -25.75 L 7.765625 -25.75 C 8.035156 -25.238281 8.363281 -24.648438 8.75 -23.984375 C 9.144531 -23.328125 9.675781 -22.53125 10.34375 -21.59375 L 16.109375 -14.421875 L 16.453125 -14.421875 L 22.21875 -21.59375 C 22.9375 -22.53125 23.484375 -23.328125 23.859375 -23.984375 C 24.242188 -24.648438 24.570312 -25.238281 24.84375 -25.75 L 32.53125 -25.75 C 31.96875 -25.21875 31.316406 -24.519531 30.578125 -23.65625 C 29.835938 -22.800781 29.066406 -21.847656 28.265625 -20.796875 L 19.171875 -9.671875 L 19.171875 -5.40625 C 19.171875 -4.25 19.222656 -3.222656 19.328125 -2.328125 C 19.441406 -1.441406 19.585938 -0.675781 19.765625 -0.03125 Z M 12.84375 -0.03125 "/></g></g><g style="fill:#ffffff;fill-opacity:1;"><g transform="translate(209.744521, 262.807526)"><path style="stroke:none" d="M 2.984375 0 C 3.441406 -1.519531 3.671875 -3.582031 3.671875 -6.1875 L 3.671875 -19.578125 C 3.671875 -20.828125 3.601562 -21.988281 3.46875 -23.0625 C 3.34375 -24.144531 3.179688 -25.039062 2.984375 -25.75 L 28.1875 -25.75 L 29.109375 -20.203125 C 28.691406 -20.398438 28.070312 -20.554688 27.25 -20.671875 C 26.425781 -20.796875 25.378906 -20.859375 24.109375 -20.859375 L 9.390625 -20.859375 L 9.390625 -15.3125 L 21.234375 -15.3125 C 22.921875 -15.3125 24.207031 -15.382812 25.09375 -15.53125 L 25.09375 -10.296875 C 24.207031 -10.453125 22.921875 -10.53125 21.234375 -10.53125 L 9.390625 -10.53125 L 9.390625 -4.890625 L 24.359375 -4.890625 C 25.804688 -4.890625 26.972656 -4.972656 27.859375 -5.140625 C 28.742188 -5.316406 29.453125 -5.550781 29.984375 -5.84375 L 28.921875 0 Z M 2.984375 0 "/></g></g><g style="fill:#ffffff;fill-opacity:1;"><g transform="translate(241.122251, 262.807526)"><path style="stroke:none" d="M 29.578125 0.546875 C 28.210938 0.546875 27.101562 0.359375 26.25 -0.015625 C 25.40625 -0.398438 24.71875 -0.910156 24.1875 -1.546875 C 23.664062 -2.179688 23.210938 -2.878906 22.828125 -3.640625 C 22.453125 -4.398438 22.070312 -5.15625 21.6875 -5.90625 C 21.3125 -6.65625 20.828125 -7.347656 20.234375 -7.984375 C 19.648438 -8.617188 18.882812 -9.125 17.9375 -9.5 C 16.988281 -9.882812 15.753906 -10.078125 14.234375 -10.078125 C 13.890625 -10.078125 13.382812 -10.066406 12.71875 -10.046875 C 12.0625 -10.023438 11.421875 -9.992188 10.796875 -9.953125 C 10.171875 -9.910156 9.710938 -9.84375 9.421875 -9.75 L 9.421875 -5.921875 C 9.421875 -3.441406 9.640625 -1.46875 10.078125 0 L 3.015625 0 C 3.210938 -0.738281 3.367188 -1.640625 3.484375 -2.703125 C 3.609375 -3.773438 3.671875 -4.9375 3.671875 -6.1875 L 3.671875 -19.578125 C 3.671875 -20.828125 3.609375 -21.988281 3.484375 -23.0625 C 3.367188 -24.144531 3.210938 -25.039062 3.015625 -25.75 L 20.828125 -25.75 C 22.890625 -25.75 24.703125 -25.492188 26.265625 -24.984375 C 27.835938 -24.472656 29.066406 -23.710938 29.953125 -22.703125 C 30.835938 -21.691406 31.28125 -20.46875 31.28125 -19.03125 C 31.28125 -17.65625 30.863281 -16.429688 30.03125 -15.359375 C 29.195312 -14.296875 28.035156 -13.460938 26.546875 -12.859375 C 25.066406 -12.253906 23.332031 -11.953125 21.34375 -11.953125 L 19.09375 -11.953125 L 19.09375 -11.671875 L 19.390625 -11.671875 C 20.691406 -11.671875 21.769531 -11.507812 22.625 -11.1875 C 23.488281 -10.863281 24.203125 -10.457031 24.765625 -9.96875 C 25.328125 -9.476562 25.8125 -8.957031 26.21875 -8.40625 C 26.625 -7.851562 27.007812 -7.332031 27.375 -6.84375 C 27.738281 -6.351562 28.148438 -5.945312 28.609375 -5.625 C 29.066406 -5.3125 29.625 -5.15625 30.28125 -5.15625 C 31.289062 -5.15625 32.050781 -5.382812 32.5625 -5.84375 C 33.082031 -6.3125 33.5 -6.941406 33.8125 -7.734375 L 34.078125 -1.359375 C 33.660156 -0.796875 33.039062 -0.335938 32.21875 0.015625 C 31.394531 0.367188 30.515625 0.546875 29.578125 0.546875 Z M 9.421875 -14.171875 L 19.984375 -14.171875 C 21.671875 -14.171875 23.015625 -14.457031 24.015625 -15.03125 C 25.023438 -15.601562 25.53125 -16.421875 25.53125 -17.484375 C 25.53125 -18.515625 25.046875 -19.320312 24.078125 -19.90625 C 23.109375 -20.5 21.828125 -20.796875 20.234375 -20.796875 L 9.421875 -20.796875 Z M 9.421875 -14.171875 "/></g></g><g style="fill:#ffffff;fill-opacity:1;"><g transform="translate(275.406023, 262.807526)"><path style="stroke:none" d="M 15.96875 0.515625 C 14.5 0.515625 12.882812 0.40625 11.125 0.1875 C 9.375 -0.03125 7.644531 -0.335938 5.9375 -0.734375 C 4.238281 -1.128906 2.710938 -1.582031 1.359375 -2.09375 L 1.625 -7.953125 C 3.5625 -6.722656 5.753906 -5.804688 8.203125 -5.203125 C 10.660156 -4.609375 13.210938 -4.3125 15.859375 -4.3125 C 18.191406 -4.3125 20.085938 -4.535156 21.546875 -4.984375 C 23.003906 -5.441406 23.734375 -6.234375 23.734375 -7.359375 C 23.734375 -8.023438 23.425781 -8.554688 22.8125 -8.953125 C 22.195312 -9.359375 21.367188 -9.675781 20.328125 -9.90625 C 19.285156 -10.144531 18.113281 -10.34375 16.8125 -10.5 C 15.507812 -10.664062 14.171875 -10.84375 12.796875 -11.03125 C 11.429688 -11.226562 10.097656 -11.492188 8.796875 -11.828125 C 7.492188 -12.160156 6.320312 -12.609375 5.28125 -13.171875 C 4.238281 -13.734375 3.410156 -14.460938 2.796875 -15.359375 C 2.179688 -16.253906 1.875 -17.363281 1.875 -18.6875 C 1.875 -20.351562 2.476562 -21.742188 3.6875 -22.859375 C 4.90625 -23.984375 6.546875 -24.832031 8.609375 -25.40625 C 10.671875 -25.976562 12.941406 -26.265625 15.421875 -26.265625 C 16.816406 -26.265625 18.234375 -26.175781 19.671875 -26 C 21.109375 -25.832031 22.46875 -25.597656 23.75 -25.296875 C 25.039062 -24.992188 26.164062 -24.632812 27.125 -24.21875 L 27.125 -18.765625 C 25.769531 -19.546875 24.0625 -20.179688 22 -20.671875 C 19.9375 -21.171875 17.816406 -21.421875 15.640625 -21.421875 C 14.265625 -21.421875 12.972656 -21.335938 11.765625 -21.171875 C 10.566406 -21.015625 9.601562 -20.734375 8.875 -20.328125 C 8.15625 -19.921875 7.796875 -19.351562 7.796875 -18.625 C 7.796875 -17.9375 8.101562 -17.382812 8.71875 -16.96875 C 9.332031 -16.550781 10.160156 -16.222656 11.203125 -15.984375 C 12.242188 -15.753906 13.414062 -15.550781 14.71875 -15.375 C 16.019531 -15.207031 17.363281 -15.03125 18.75 -14.84375 C 20.132812 -14.664062 21.476562 -14.414062 22.78125 -14.09375 C 24.082031 -13.769531 25.253906 -13.335938 26.296875 -12.796875 C 27.335938 -12.265625 28.160156 -11.5625 28.765625 -10.6875 C 29.378906 -9.820312 29.6875 -8.722656 29.6875 -7.390625 C 29.6875 -5.753906 29.125 -4.34375 28 -3.15625 C 26.875 -1.976562 25.285156 -1.070312 23.234375 -0.4375 C 21.191406 0.195312 18.769531 0.515625 15.96875 0.515625 Z M 15.96875 0.515625 "/></g></g><g style="fill:#ffffff;fill-opacity:1;"><g transform="translate(98.642851, 286.256554)"><path style="stroke:none" d="M 1.46875 0 C 1.570312 -0.351562 1.648438 -0.789062 1.703125 -1.3125 C 1.765625 -1.84375 1.796875 -2.421875 1.796875 -3.046875 L 1.796875 -9.625 C 1.796875 -10.238281 1.765625 -10.8125 1.703125 -11.34375 C 1.640625 -11.875 1.5625 -12.316406 1.46875 -12.671875 L 4.9375 -12.671875 C 4.84375 -12.316406 4.765625 -11.875 4.703125 -11.34375 C 4.640625 -10.8125 4.609375 -10.238281 4.609375 -9.625 L 4.609375 -3.046875 C 4.609375 -2.421875 4.640625 -1.84375 4.703125 -1.3125 C 4.765625 -0.789062 4.84375 -0.351562 4.9375 0 Z M 1.46875 0 "/></g></g><g style="fill:#ffffff;fill-opacity:1;"><g transform="translate(106.930193, 286.256554)"><path style="stroke:none" d="M 1.46875 0 C 1.5625 -0.351562 1.640625 -0.789062 1.703125 -1.3125 C 1.773438 -1.84375 1.8125 -2.421875 1.8125 -3.046875 L 1.8125 -9.625 C 1.8125 -10.90625 1.695312 -11.921875 1.46875 -12.671875 L 4.734375 -12.671875 L 13.15625 -3.78125 L 13.390625 -3.78125 L 13.390625 -9.6875 C 13.390625 -10.3125 13.351562 -10.890625 13.28125 -11.421875 C 13.21875 -11.960938 13.144531 -12.378906 13.0625 -12.671875 L 16.53125 -12.671875 C 16.4375 -12.316406 16.359375 -11.875 16.296875 -11.34375 C 16.242188 -10.8125 16.21875 -10.238281 16.21875 -9.625 L 16.21875 0 L 13.625 0 L 4.828125 -9.171875 L 4.609375 -9.171875 L 4.609375 -3.234375 C 4.609375 -2.609375 4.640625 -1.988281 4.703125 -1.375 C 4.773438 -0.769531 4.851562 -0.3125 4.9375 0 Z M 1.46875 0 "/></g></g><g style="fill:#ffffff;fill-opacity:1;"><g transform="translate(126.797581, 286.256554)"><path style="stroke:none" d=""/></g></g><g style="fill:#ffffff;fill-opacity:1;"><g transform="translate(133.745987, 286.256554)"><path style="stroke:none" d="M 1.46875 0 C 1.695312 -0.75 1.8125 -1.765625 1.8125 -3.046875 L 1.8125 -9.625 C 1.8125 -10.238281 1.773438 -10.8125 1.703125 -11.34375 C 1.640625 -11.875 1.5625 -12.316406 1.46875 -12.671875 L 9.578125 -12.671875 C 10.703125 -12.671875 11.710938 -12.488281 12.609375 -12.125 C 13.503906 -11.769531 14.207031 -11.25 14.71875 -10.5625 C 15.226562 -9.875 15.484375 -9.03125 15.484375 -8.03125 C 15.484375 -7.03125 15.253906 -6.171875 14.796875 -5.453125 C 14.347656 -4.734375 13.726562 -4.179688 12.9375 -3.796875 C 12.15625 -3.421875 11.265625 -3.234375 10.265625 -3.234375 C 8.816406 -3.234375 7.597656 -3.519531 6.609375 -4.09375 C 5.617188 -4.675781 5.007812 -5.59375 4.78125 -6.84375 L 4.625 -6.84375 L 4.609375 -2.984375 C 4.609375 -2.378906 4.632812 -1.816406 4.6875 -1.296875 C 4.75 -0.785156 4.832031 -0.351562 4.9375 0 Z M 9.1875 -5.53125 C 9.800781 -5.53125 10.375 -5.628906 10.90625 -5.828125 C 11.4375 -6.035156 11.863281 -6.320312 12.1875 -6.6875 C 12.507812 -7.0625 12.671875 -7.507812 12.671875 -8.03125 C 12.671875 -8.78125 12.359375 -9.363281 11.734375 -9.78125 C 11.117188 -10.207031 10.253906 -10.421875 9.140625 -10.421875 C 8.328125 -10.421875 7.550781 -10.410156 6.8125 -10.390625 C 6.070312 -10.378906 5.34375 -10.335938 4.625 -10.265625 L 4.625 -9.03125 C 4.644531 -8.289062 4.875 -7.660156 5.3125 -7.140625 C 5.75 -6.628906 6.3125 -6.234375 7 -5.953125 C 7.695312 -5.671875 8.425781 -5.53125 9.1875 -5.53125 Z M 9.1875 -5.53125 "/></g></g><g style="fill:#ffffff;fill-opacity:1;"><g transform="translate(151.586867, 286.256554)"><path style="stroke:none" d="M 8.65625 0.25 C 7.144531 0.25 5.796875 -0.0078125 4.609375 -0.53125 C 3.429688 -1.0625 2.503906 -1.816406 1.828125 -2.796875 C 1.148438 -3.773438 0.8125 -4.953125 0.8125 -6.328125 C 0.8125 -7.703125 1.148438 -8.878906 1.828125 -9.859375 C 2.503906 -10.847656 3.429688 -11.601562 4.609375 -12.125 C 5.796875 -12.65625 7.144531 -12.921875 8.65625 -12.921875 C 10.15625 -12.921875 11.492188 -12.65625 12.671875 -12.125 C 13.859375 -11.601562 14.789062 -10.847656 15.46875 -9.859375 C 16.144531 -8.878906 16.484375 -7.703125 16.484375 -6.328125 C 16.484375 -4.953125 16.144531 -3.773438 15.46875 -2.796875 C 14.789062 -1.816406 13.859375 -1.0625 12.671875 -0.53125 C 11.492188 -0.0078125 10.15625 0.25 8.65625 0.25 Z M 8.65625 -1.984375 C 9.601562 -1.984375 10.453125 -2.160156 11.203125 -2.515625 C 11.953125 -2.867188 12.539062 -3.367188 12.96875 -4.015625 C 13.40625 -4.671875 13.625 -5.441406 13.625 -6.328125 C 13.625 -7.234375 13.40625 -8.007812 12.96875 -8.65625 C 12.539062 -9.300781 11.953125 -9.796875 11.203125 -10.140625 C 10.453125 -10.492188 9.601562 -10.671875 8.65625 -10.671875 C 7.707031 -10.671875 6.851562 -10.492188 6.09375 -10.140625 C 5.34375 -9.796875 4.75 -9.300781 4.3125 -8.65625 C 3.882812 -8.007812 3.671875 -7.234375 3.671875 -6.328125 C 3.671875 -5.441406 3.882812 -4.671875 4.3125 -4.015625 C 4.75 -3.367188 5.34375 -2.867188 6.09375 -2.515625 C 6.851562 -2.160156 7.707031 -1.984375 8.65625 -1.984375 Z M 8.65625 -1.984375 "/></g></g><g style="fill:#ffffff;fill-opacity:1;"><g transform="translate(170.748602, 286.256554)"><path style="stroke:none" d="M 14.546875 0.265625 C 13.867188 0.265625 13.320312 0.171875 12.90625 -0.015625 C 12.488281 -0.203125 12.148438 -0.453125 11.890625 -0.765625 C 11.628906 -1.078125 11.40625 -1.421875 11.21875 -1.796875 C 11.039062 -2.171875 10.859375 -2.539062 10.671875 -2.90625 C 10.484375 -3.269531 10.242188 -3.609375 9.953125 -3.921875 C 9.660156 -4.234375 9.28125 -4.484375 8.8125 -4.671875 C 8.351562 -4.859375 7.75 -4.953125 7 -4.953125 C 6.832031 -4.953125 6.582031 -4.945312 6.25 -4.9375 C 5.925781 -4.925781 5.609375 -4.910156 5.296875 -4.890625 C 4.992188 -4.878906 4.769531 -4.847656 4.625 -4.796875 L 4.625 -2.90625 C 4.625 -1.6875 4.734375 -0.71875 4.953125 0 L 1.484375 0 C 1.578125 -0.363281 1.65625 -0.804688 1.71875 -1.328125 C 1.78125 -1.847656 1.8125 -2.421875 1.8125 -3.046875 L 1.8125 -9.625 C 1.8125 -10.238281 1.78125 -10.8125 1.71875 -11.34375 C 1.65625 -11.875 1.578125 -12.316406 1.484375 -12.671875 L 10.234375 -12.671875 C 11.253906 -12.671875 12.148438 -12.539062 12.921875 -12.28125 C 13.691406 -12.03125 14.289062 -11.65625 14.71875 -11.15625 C 15.15625 -10.664062 15.375 -10.066406 15.375 -9.359375 C 15.375 -8.679688 15.171875 -8.078125 14.765625 -7.546875 C 14.359375 -7.023438 13.785156 -6.613281 13.046875 -6.3125 C 12.316406 -6.019531 11.46875 -5.875 10.5 -5.875 L 9.390625 -5.875 L 9.390625 -5.734375 L 9.53125 -5.734375 C 10.175781 -5.734375 10.707031 -5.65625 11.125 -5.5 C 11.550781 -5.34375 11.898438 -5.144531 12.171875 -4.90625 C 12.453125 -4.664062 12.691406 -4.410156 12.890625 -4.140625 C 13.085938 -3.867188 13.273438 -3.609375 13.453125 -3.359375 C 13.640625 -3.117188 13.84375 -2.921875 14.0625 -2.765625 C 14.289062 -2.609375 14.566406 -2.53125 14.890625 -2.53125 C 15.390625 -2.53125 15.765625 -2.644531 16.015625 -2.875 C 16.265625 -3.101562 16.46875 -3.410156 16.625 -3.796875 L 16.75 -0.671875 C 16.550781 -0.390625 16.25 -0.164062 15.84375 0 C 15.4375 0.175781 15.003906 0.265625 14.546875 0.265625 Z M 4.625 -6.96875 L 9.828125 -6.96875 C 10.660156 -6.96875 11.320312 -7.109375 11.8125 -7.390625 C 12.3125 -7.671875 12.5625 -8.070312 12.5625 -8.59375 C 12.5625 -9.101562 12.320312 -9.5 11.84375 -9.78125 C 11.363281 -10.070312 10.734375 -10.21875 9.953125 -10.21875 L 4.625 -10.21875 Z M 4.625 -6.96875 "/></g></g><g style="fill:#ffffff;fill-opacity:1;"><g transform="translate(189.566556, 286.256554)"><path style="stroke:none" d="M 5.65625 0 C 5.757812 -0.363281 5.835938 -0.804688 5.890625 -1.328125 C 5.953125 -1.847656 5.984375 -2.421875 5.984375 -3.046875 L 5.984375 -10.203125 L 2.84375 -10.203125 C 2.25 -10.203125 1.765625 -10.175781 1.390625 -10.125 C 1.023438 -10.082031 0.6875 -10.003906 0.375 -9.890625 L 0.9375 -12.671875 L 13.84375 -12.671875 L 14.40625 -9.890625 C 14.101562 -9.992188 13.765625 -10.070312 13.390625 -10.125 C 13.015625 -10.175781 12.53125 -10.203125 11.9375 -10.203125 L 8.8125 -10.203125 L 8.8125 -3.046875 C 8.8125 -2.421875 8.835938 -1.847656 8.890625 -1.328125 C 8.941406 -0.804688 9.023438 -0.363281 9.140625 0 Z M 5.65625 0 "/></g></g><g style="fill:#ffffff;fill-opacity:1;"><g transform="translate(206.195152, 286.256554)"><path style="stroke:none" d="M 8.484375 0.25 C 7.078125 0.25 5.863281 0.0234375 4.84375 -0.421875 C 3.820312 -0.878906 3.039062 -1.535156 2.5 -2.390625 C 1.957031 -3.253906 1.6875 -4.300781 1.6875 -5.53125 L 1.6875 -9.625 C 1.6875 -10.238281 1.65625 -10.8125 1.59375 -11.34375 C 1.53125 -11.875 1.453125 -12.316406 1.359375 -12.671875 L 4.8125 -12.671875 C 4.726562 -12.316406 4.65625 -11.863281 4.59375 -11.3125 C 4.53125 -10.769531 4.5 -10.195312 4.5 -9.59375 L 4.5 -5.953125 C 4.5 -5.191406 4.664062 -4.53125 5 -3.96875 C 5.332031 -3.40625 5.800781 -2.96875 6.40625 -2.65625 C 7.007812 -2.351562 7.703125 -2.203125 8.484375 -2.203125 C 9.285156 -2.203125 9.984375 -2.351562 10.578125 -2.65625 C 11.171875 -2.96875 11.632812 -3.40625 11.96875 -3.96875 C 12.3125 -4.53125 12.484375 -5.191406 12.484375 -5.953125 L 12.484375 -9.59375 C 12.484375 -10.195312 12.453125 -10.769531 12.390625 -11.3125 C 12.328125 -11.863281 12.25 -12.316406 12.15625 -12.671875 L 15.640625 -12.671875 C 15.535156 -12.316406 15.453125 -11.875 15.390625 -11.34375 C 15.335938 -10.8125 15.3125 -10.238281 15.3125 -9.625 L 15.3125 -5.53125 C 15.3125 -3.738281 14.71875 -2.328125 13.53125 -1.296875 C 12.351562 -0.265625 10.671875 0.25 8.484375 0.25 Z M 8.484375 0.25 "/></g></g><g style="fill:#ffffff;fill-opacity:1;"><g transform="translate(225.049292, 286.256554)"><path style="stroke:none" d="M 8.90625 0.25 C 7.3125 0.25 5.90625 -0.015625 4.6875 -0.546875 C 3.46875 -1.085938 2.515625 -1.84375 1.828125 -2.8125 C 1.148438 -3.789062 0.8125 -4.953125 0.8125 -6.296875 C 0.8125 -7.648438 1.15625 -8.820312 1.84375 -9.8125 C 2.539062 -10.800781 3.5 -11.566406 4.71875 -12.109375 C 5.945312 -12.648438 7.351562 -12.921875 8.9375 -12.921875 C 9.988281 -12.921875 10.96875 -12.832031 11.875 -12.65625 C 12.78125 -12.476562 13.597656 -12.253906 14.328125 -11.984375 L 14.1875 -9.421875 C 13.800781 -9.660156 13.335938 -9.859375 12.796875 -10.015625 C 12.265625 -10.179688 11.691406 -10.304688 11.078125 -10.390625 C 10.460938 -10.472656 9.851562 -10.515625 9.25 -10.515625 C 8.144531 -10.515625 7.164062 -10.34375 6.3125 -10 C 5.46875 -9.664062 4.800781 -9.179688 4.3125 -8.546875 C 3.832031 -7.910156 3.59375 -7.160156 3.59375 -6.296875 C 3.59375 -5.453125 3.816406 -4.71875 4.265625 -4.09375 C 4.722656 -3.476562 5.351562 -3.003906 6.15625 -2.671875 C 6.96875 -2.335938 7.90625 -2.171875 8.96875 -2.171875 C 9.789062 -2.171875 10.578125 -2.296875 11.328125 -2.546875 C 12.085938 -2.804688 12.675781 -3.15625 13.09375 -3.59375 L 13.09375 -5.125 L 10.046875 -5.125 C 9.773438 -5.125 9.46875 -5.109375 9.125 -5.078125 C 8.789062 -5.046875 8.539062 -5 8.375 -4.9375 L 8.5 -7.40625 L 15.78125 -7.40625 L 15.78125 -2.1875 C 15.09375 -1.445312 14.140625 -0.851562 12.921875 -0.40625 C 11.710938 0.03125 10.375 0.25 8.90625 0.25 Z M 8.90625 0.25 "/></g></g><g style="fill:#ffffff;fill-opacity:1;"><g transform="translate(243.577745, 286.256554)"><path style="stroke:none" d="M -0.21875 0 C 0.0195312 -0.351562 0.304688 -0.800781 0.640625 -1.34375 C 0.972656 -1.894531 1.289062 -2.460938 1.59375 -3.046875 L 5.03125 -9.625 C 5.332031 -10.226562 5.5625 -10.796875 5.71875 -11.328125 C 5.882812 -11.867188 6 -12.316406 6.0625 -12.671875 L 10.5 -12.671875 C 10.582031 -12.253906 10.703125 -11.769531 10.859375 -11.21875 C 11.023438 -10.664062 11.226562 -10.140625 11.46875 -9.640625 L 14.953125 -3.046875 C 15.242188 -2.453125 15.550781 -1.882812 15.875 -1.34375 C 16.207031 -0.800781 16.492188 -0.351562 16.734375 0 L 13.1875 0 C 13.15625 -0.238281 13.078125 -0.515625 12.953125 -0.828125 C 12.835938 -1.140625 12.644531 -1.535156 12.375 -2.015625 L 11.84375 -2.96875 L 4.671875 -2.96875 L 4.140625 -1.984375 C 3.921875 -1.523438 3.738281 -1.140625 3.59375 -0.828125 C 3.457031 -0.515625 3.367188 -0.238281 3.328125 0 Z M 5.71875 -5.125 L 10.796875 -5.125 L 9.125 -8.359375 C 8.96875 -8.691406 8.828125 -9.019531 8.703125 -9.34375 C 8.578125 -9.664062 8.457031 -10 8.34375 -10.34375 L 8.171875 -10.34375 C 8.054688 -9.988281 7.9375 -9.648438 7.8125 -9.328125 C 7.695312 -9.015625 7.550781 -8.6875 7.375 -8.34375 Z M 5.71875 -5.125 "/></g></g><g style="fill:#ffffff;fill-opacity:1;"><g transform="translate(261.961441, 286.256554)"><path style="stroke:none" d="M 11 0.265625 C 10.3125 0.265625 9.675781 0.21875 9.09375 0.125 C 8.519531 0.0390625 7.941406 -0.0390625 7.359375 -0.125 C 6.773438 -0.207031 6.109375 -0.25 5.359375 -0.25 C 4.523438 -0.25 3.769531 -0.191406 3.09375 -0.078125 C 2.425781 0.0351562 1.882812 0.148438 1.46875 0.265625 C 1.570312 -0.0859375 1.65625 -0.570312 1.71875 -1.1875 C 1.78125 -1.800781 1.8125 -2.421875 1.8125 -3.046875 L 1.8125 -9.625 C 1.8125 -10.238281 1.773438 -10.8125 1.703125 -11.34375 C 1.640625 -11.875 1.5625 -12.316406 1.46875 -12.671875 L 4.9375 -12.671875 C 4.851562 -12.316406 4.773438 -11.828125 4.703125 -11.203125 C 4.640625 -10.578125 4.609375 -9.957031 4.609375 -9.34375 L 4.609375 -2.390625 L 10.125 -2.390625 C 10.914062 -2.390625 11.644531 -2.4375 12.3125 -2.53125 C 12.976562 -2.625 13.5 -2.75 13.875 -2.90625 L 13.71875 -0.125 C 13.488281 -0.0703125 13.117188 0.00390625 12.609375 0.109375 C 12.097656 0.210938 11.5625 0.265625 11 0.265625 Z M 11 0.265625 "/></g></g></g></svg>